REM DIRINDEX 1\2\4,1\2\5,1\3\6,1\3\7,1\3\8
REM DIRNAME folder01,folder02,folder03,folder04,folder05,folder06,folder07,folder08
TITLE ""
FILE "LV2_025_WORDS.mp3" MP3
  TRACK 01 AUDIO
    TITLE "0:"
    INDEX 01 00:00:00
  TRACK 02 AUDIO
    TITLE "6:cjc094_0919"
    INDEX 01 00:00:03
  TRACK 03 AUDIO
    TITLE "0:"
    INDEX 01 00:02:63
  TRACK 04 AUDIO
    TITLE "7:cjc094_0920"
    INDEX 01 00:03:41
  TRACK 05 AUDIO
    TITLE "0:"
    INDEX 01 00:04:44
  TRACK 06 AUDIO
    TITLE "8:cjc094_0921"
    INDEX 01 00:04:58
  TRACK 07 AUDIO
    TITLE "0:"
    INDEX 01 00:06:69
  TRACK 08 AUDIO
    TITLE "7:cjc094_0922"
    INDEX 01 00:07:43
  TRACK 09 AUDIO
    TITLE "0:"
    INDEX 01 00:08:54
  TRACK 10 AUDIO
    TITLE "8:cjc094_0923"
    INDEX 01 00:08:64
  TRACK 11 AUDIO
    TITLE "0:"
    INDEX 01 00:11:23
  TRACK 12 AUDIO
    TITLE "7:cjc094_0924"
    INDEX 01 00:11:68
  TRACK 13 AUDIO
    TITLE "0:"
    INDEX 01 00:12:71
  TRACK 14 AUDIO
    TITLE "8:cjc094_0925"
    INDEX 01 00:13:08
  TRACK 15 AUDIO
    TITLE "0:"
    INDEX 01 00:17:06
  TRACK 16 AUDIO
    TITLE "7:cjc094_0926"
    INDEX 01 00:17:55
  TRACK 17 AUDIO
    TITLE "0:"
    INDEX 01 00:18:56
  TRACK 18 AUDIO
    TITLE "8:cjc094_0927"
    INDEX 01 00:18:74
  TRACK 19 AUDIO
    TITLE "0:"
    INDEX 01 00:19:56
  TRACK 20 AUDIO
    TITLE "7:cjc094_0928"
    INDEX 01 00:20:30
  TRACK 21 AUDIO
    TITLE "0:"
    INDEX 01 00:21:33
  TRACK 22 AUDIO
    TITLE "8:cjc094_0929"
    INDEX 01 00:21:47
  TRACK 23 AUDIO
    TITLE "0:"
    INDEX 01 00:25:54
  TRACK 24 AUDIO
    TITLE "7:cjc094_0930"
    INDEX 01 00:26:26
  TRACK 25 AUDIO
    TITLE "0:"
    INDEX 01 00:27:30
  TRACK 26 AUDIO
    TITLE "8:cjc094_0931"
    INDEX 01 00:27:43
  TRACK 27 AUDIO
    TITLE "0:"
    INDEX 01 00:33:28
  TRACK 28 AUDIO
    TITLE "7:cjc094_0932"
    INDEX 01 00:34:02
  TRACK 29 AUDIO
    TITLE "0:"
    INDEX 01 00:35:00
  TRACK 30 AUDIO
    TITLE "8:cjc094_0933"
    INDEX 01 00:35:12
  TRACK 31 AUDIO
    TITLE "0:"
    INDEX 01 00:38:37
  TRACK 32 AUDIO
    TITLE "7:cjc094_0934"
    INDEX 01 00:39:05
  TRACK 33 AUDIO
    TITLE "0:"
    INDEX 01 00:40:15
  TRACK 34 AUDIO
    TITLE "8:cjc094_0935"
    INDEX 01 00:40:30
  TRACK 35 AUDIO
    TITLE "0:"
    INDEX 01 00:41:42
  TRACK 36 AUDIO
    TITLE "7:cjc094_0936"
    INDEX 01 00:42:12
  TRACK 37 AUDIO
    TITLE "0:"
    INDEX 01 00:43:15
  TRACK 38 AUDIO
    TITLE "8:cjc094_0937"
    INDEX 01 00:43:39
  TRACK 39 AUDIO
    TITLE "0:"
    INDEX 01 00:45:53
  TRACK 40 AUDIO
    TITLE "7:cjc094_0938"
    INDEX 01 00:46:29
  TRACK 41 AUDIO
    TITLE "0:"
    INDEX 01 00:47:38
  TRACK 42 AUDIO
    TITLE "8:cjc094_0939"
    INDEX 01 00:47:50
  TRACK 43 AUDIO
    TITLE "0:"
    INDEX 01 00:49:57
  TRACK 44 AUDIO
    TITLE "7:cjc094_0940"
    INDEX 01 00:50:27
  TRACK 45 AUDIO
    TITLE "0:"
    INDEX 01 00:51:30
  TRACK 46 AUDIO
    TITLE "8:cjc094_0941"
    INDEX 01 00:51:44
  TRACK 47 AUDIO
    TITLE "0:"
    INDEX 01 00:53:72
  TRACK 48 AUDIO
    TITLE "7:cjc094_0942"
    INDEX 01 00:54:44
  TRACK 49 AUDIO
    TITLE "0:"
    INDEX 01 00:55:48
  TRACK 50 AUDIO
    TITLE "8:cjc094_0943"
    INDEX 01 00:55:63
  TRACK 51 AUDIO
    TITLE "0:"
    INDEX 01 00:57:68
  TRACK 52 AUDIO
    TITLE "7:cjc094_0944"
    INDEX 01 00:58:40
  TRACK 53 AUDIO
    TITLE "0:"
    INDEX 01 00:59:53
  TRACK 54 AUDIO
    TITLE "8:cjc094_0945"
    INDEX 01 00:59:67
  TRACK 55 AUDIO
    TITLE "0:"
    INDEX 01 01:00:70
  TRACK 56 AUDIO
    TITLE "7:cjc094_0946"
    INDEX 01 01:01:38
  TRACK 57 AUDIO
    TITLE "0:"
    INDEX 01 01:02:42
  TRACK 58 AUDIO
    TITLE "8:cjc094_0947"
    INDEX 01 01:02:57
  TRACK 59 AUDIO
    TITLE "0:"
    INDEX 01 01:05:34
  TRACK 60 AUDIO
    TITLE "7:cjc094_0948"
    INDEX 01 01:06:14
  TRACK 61 AUDIO
    TITLE "0:"
    INDEX 01 01:07:19
  TRACK 62 AUDIO
    TITLE "8:cjc094_0949"
    INDEX 01 01:07:35
  TRACK 63 AUDIO
    TITLE "0:"
    INDEX 01 01:09:03
  TRACK 64 AUDIO
    TITLE "7:cjc094_0950"
    INDEX 01 01:09:56
  TRACK 65 AUDIO
    TITLE "0:"
    INDEX 01 01:10:59
  TRACK 66 AUDIO
    TITLE "8:cjc094_0951"
    INDEX 01 01:10:73
  TRACK 67 AUDIO
    TITLE "0:"
    INDEX 01 01:12:36
